<svg id="Layer_1" xmlns="http://www.w3.org/2000/svg" viewBox="0 0 1000 500">
    <path d="M398.43,244.67c-.49,29.44-6.71,57.39-19.72,83.62-3.44,6.93-3.35,11,2.44,16.69,15.68,15.5,20.43,34.86,14,55.71s-21.52,34-43.27,37.89c-19.81,3.58-36.92-2.77-50.65-17.27-4-4.24-6.92-4.61-12-2.13C173.2,475.72,36.59,408,11.78,281.77c-20.64-105,49.12-206.88,156-227.64C272,33.88,375.39,104.79,394.23,209.63,396.31,221.19,397.06,233,398.43,244.67ZM271.26,294.74c2-3.7,3.39-6.42,4.84-9.12A84.25,84.25,0,0,0,286,234.1c-6.2-50.34-58.47-84.11-107.07-68.89-39.2,12.27-64.17,50.58-58.94,90.42a83.24,83.24,0,0,0,78.67,72.74c27.32,1.4,50.13,11.39,69.06,31.16,16,16.68,32.51,32.8,49,49,14.8,14.56,36.75,14.66,50.79.49,13.71-13.83,13.55-35.72-.49-50.19q-14.25-14.69-28.74-29.13C319.8,311.25,300.35,294.66,271.26,294.74Zm88.09,27.2c34.94-67,21.41-163.13-54.67-218.53C233,51.21,131.11,62.83,72.16,129.92c-59.6,67.84-57.74,169.85,3.18,234.29,62.43,66.05,155,65.71,204.3,36.46-4.15-4.34-8.51-8.51-12.39-13.07s-7.49-4.87-13-2.8c-23.52,8.93-47.85,11-72.76,7.61C99.76,381.34,41.2,301.09,56,220.19c13.11-71.84,72.58-122.3,145.81-123.73,69.17-1.35,132.15,48.43,146.7,115.82,6.37,29.46,4.41,58.21-6.25,86.44-.91,2.41-1,6.6.41,8.16C347.59,312.2,353.41,316.72,359.35,321.94Z"/>
    <path d="M506.55,291.63l5.21,10.68c-7.07,0-13.27.36-19.39-.21-2-.19-4.6-2.41-5.49-4.36-2.45-5.37-6.23-6.62-11.86-6.57-23.95.23-23.95.05-23.95-23.64q0-33.78,0-67.56c0-10.27,3.27-13.45,13.69-13.49,11.8,0,23.61-.09,35.41,0,9.06.07,12.49,3.32,12.52,12.19.1,26.71.24,53.42-.17,80.12-.06,4.4-2.81,8.75-4.31,13.12Zm-35.49-85v64.29h21.56V206.65Z"/>
    <path d="M892.73,239c0,13.1.07,26.21,0,39.3-.07,9.49-3.38,12.86-12.67,12.94q-18.1.17-36.21,0c-9.18-.07-12.73-3.65-12.75-12.92q-.09-39.69,0-79.39c0-8.85,3.52-12.37,12.34-12.46q18.5-.19,37,0c8.9.08,12.2,3.42,12.28,12.45C892.81,212.31,892.73,225.67,892.73,239ZM851,206.64v64.3H872.6v-64.3Z"/>
    <path d="M536.23,188.41h18.49v82.37h22.57V188.52h19.47c.17,2.24.49,4.5.5,6.76q0,40.88,0,81.75c0,10.92-3.25,14.21-13.9,14.26q-18.11.07-36.21,0c-7.16,0-11.78-3.5-11.83-10.77-.18-29.87,0-59.74,0-89.6A9.28,9.28,0,0,1,536.23,188.41Z"/>
    <path d="M916.8,188.44h18.43v82.61h22.69v-82.5h19.25c.15,2.26.44,4.75.44,7.24q.06,40.91,0,81.81c0,10.37-3.28,13.64-13.58,13.69-12.08,0-24.16.12-36.24,0-7.63-.1-11.71-3.62-11.75-10.68-.14-29.63,0-59.26,0-88.89A16.38,16.38,0,0,1,916.8,188.44Z"/>
    <path d="M769.69,271.41H808.1v19.24H746.94c-.16-8.87-2.23-17.75,3.55-26.62,10.44-16,20-32.58,30-48.93,1.44-2.36,2.66-4.85,4.61-8.42H747.15V187h61.06c.11,9.66,1.82,19-4.44,28.31-10.24,15.19-19.25,31.21-28.77,46.9C773.55,264.63,772.2,267.08,769.69,271.41Z"/>
    <path d="M685.17,271.3h38.3v19.61H662.92c-.8-10.35-1.74-19.93,4.63-29.37,10.09-15,19-30.75,28.39-46.21,1.45-2.39,2.71-4.88,4.71-8.53H663V187h60.42c.83,10.39,1.61,19.95-4.7,29.44C707.32,233.66,697.1,251.65,685.17,271.3Z"/>
    <path d="M639.36,290.93H620.64V187.13h18.72Z"/>
    <path d="M238.23,315.07c22.75-7.34,43-.44,60.09,13.65,18,14.79,34.08,31.82,50.68,48.21,4.18,4.13,4.21,9.65-.28,14.06-4.26,4.18-9.14,3.79-13.39,0-5.26-4.73-10.16-9.86-15.21-14.82Q301.58,358,283,339.8C270.44,327.53,256.47,317.71,238.23,315.07Z"/>
</svg>
